<svg id="Layer_1" data-name="Layer 1" xmlns="http://www.w3.org/2000/svg" xmlns:xlink="http://www.w3.org/1999/xlink" viewBox="0 0 32 32"><defs><style>.cls-1{fill:url(#linear-gradient);}.cls-2{fill:#d97f39;}</style><linearGradient id="linear-gradient" x1="14.27" y1="3.75" x2="16.32" y2="29.37" gradientTransform="matrix(1, 0, 0, -1, 0, 34)" gradientUnits="userSpaceOnUse"><stop offset="0" stop-color="#ffea83"/><stop offset="0.08" stop-color="#ffdd35"/><stop offset="1" stop-color="#ffa800"/></linearGradient></defs><rect x="15.02" y="-2.04" width="1.97" height="36.09" rx="0.65"/><path class="cls-1" d="M18.29,29.92H13.72a4.49,4.49,0,0,1-4.19-3.83l-3-14.69c-1-4.72,1.66-9.32,5.53-9.32H20.2c3.64,0,6.1,4.33,5.2,8.79l-3,15.33A4.38,4.38,0,0,1,18.29,29.92Z"/><path class="cls-2" d="M16.11,24.76a11.22,11.22,0,0,0,6.71-1.13l1.25-6.25c-2.4.47-8.7,1.33-11.06-2a13.43,13.43,0,0,0,12.43-4.86c.69-4.33-1.72-8.43-5.26-8.43H12c-2.36,0-4.27,1.75-5.17,4.2,1.59,1.42,3.74,2.88,6,3-1.32,1.49-4.3,1.58-6.52.91a10.09,10.09,0,0,0,.16,1.23l1.64,8.12a14.39,14.39,0,0,0,8.79,2.79c-1.9,2.2-5.39,1.62-8,.75l.6,3a4.51,4.51,0,0,0,4.19,3.83H18.3a4.09,4.09,0,0,0,3.42-2.07A9.76,9.76,0,0,1,16.11,24.76Z"/></svg>